<svg width="68" height="68" viewBox="0 0 68 68" fill="none" xmlns="http://www.w3.org/2000/svg">
<rect width="68" height="68" rx="10" fill="#5A6AFF"/>
<path d="M45 33C40.03 33 35 34.546 35 37.5V41.5C35 44.454 40.03 46 45 46C49.97 46 55 44.454 55 41.5V37.5C55 34.546 49.97 33 45 33ZM37 41.5V40.303C37.6333 40.6617 38.304 40.9501 39 41.163V43.044C37.688 42.53 37 41.918 37 41.5ZM49 41.648V43.619C48.133 43.798 47.133 43.929 46 43.977V41.977C47.0064 41.9369 48.0088 41.827 49 41.648ZM44 43.978C42.992 43.9394 41.9888 43.8197 41 43.62V41.649C41.959 41.823 42.972 41.936 44 41.979V43.978ZM51 43.044V41.163C51.6962 40.9505 52.3669 40.6621 53 40.303V41.5C53 41.918 52.313 42.53 51 43.044ZM45 40C39.823 40 37 38.349 37 37.5C37 36.651 39.823 35 45 35C50.177 35 53 36.651 53 37.5C53 38.349 50.177 40 45 40Z" fill="white"/>
<path d="M23 33C18.03 33 13 34.546 13 37.5V41.5C13 44.454 18.03 46 23 46C27.97 46 33 44.454 33 41.5V37.5C33 34.546 27.97 33 23 33ZM15 41.5V40.303C15.6333 40.6617 16.304 40.9501 17 41.163V43.044C15.688 42.53 15 41.918 15 41.5ZM27 41.648V43.619C26.133 43.798 25.133 43.929 24 43.977V41.977C25.0064 41.9369 26.0088 41.827 27 41.648ZM22 43.978C20.992 43.9394 19.9888 43.8197 19 43.62V41.649C19.959 41.823 20.972 41.936 22 41.979V43.978ZM29 43.044V41.163C29.6962 40.9505 30.3669 40.6621 31 40.303V41.5C31 41.918 30.313 42.53 29 43.044ZM23 40C17.823 40 15 38.349 15 37.5C15 36.651 17.823 35 23 35C28.177 35 31 36.651 31 37.5C31 38.349 28.177 40 23 40Z" fill="white"/>
<path d="M23 27C18.03 27 13 28.546 13 31.5V35.5C13 38.454 18.03 40 23 40C27.97 40 33 38.454 33 35.5V31.5C33 28.546 27.97 27 23 27ZM15 35.5V34.303C15.6333 34.6617 16.304 34.9501 17 35.163V37.044C15.688 36.53 15 35.918 15 35.5ZM27 35.648V37.619C26.133 37.798 25.133 37.929 24 37.977V35.977C25.0064 35.9369 26.0088 35.827 27 35.648ZM22 37.978C20.992 37.9394 19.9888 37.8197 19 37.62V35.649C19.959 35.823 20.972 35.936 22 35.979V37.978ZM29 37.044V35.163C29.6962 34.9505 30.3669 34.6621 31 34.303V35.5C31 35.918 30.313 36.53 29 37.044ZM23 34C17.823 34 15 32.349 15 31.5C15 30.651 17.823 29 23 29C28.177 29 31 30.651 31 31.5C31 32.349 28.177 34 23 34Z" fill="white"/>
<path d="M23 21C18.03 21 13 22.546 13 25.5V29.5C13 32.454 18.03 34 23 34C27.97 34 33 32.454 33 29.5V25.5C33 22.546 27.97 21 23 21ZM15 29.5V28.303C15.6333 28.6617 16.304 28.9501 17 29.163V31.044C15.688 30.53 15 29.918 15 29.5ZM27 29.648V31.619C26.133 31.798 25.133 31.929 24 31.977V29.977C25.0064 29.9369 26.0088 29.827 27 29.648ZM22 31.978C20.992 31.9394 19.9888 31.8197 19 31.62V29.649C19.959 29.823 20.972 29.936 22 29.979V31.978ZM29 31.044V29.163C29.6962 28.9505 30.3669 28.6621 31 28.303V29.5C31 29.918 30.313 30.53 29 31.044ZM23 28C17.823 28 15 26.349 15 25.5C15 24.651 17.823 23 23 23C28.177 23 31 24.651 31 25.5C31 26.349 28.177 28 23 28Z" fill="white"/>
</svg>
