<svg width="68" height="68" viewBox="0 0 68 68" fill="none" xmlns="http://www.w3.org/2000/svg">
<rect width="68" height="68" rx="10" fill="#5A6AFF"/>
<path d="M40.5 28.9368L38.7083 27.1029C38.5417 26.9323 38.3472 26.8544 38.125 26.8692C37.9028 26.884 37.7083 26.9761 37.5417 27.1456C37.375 27.315 37.2917 27.5141 37.2917 27.7426C37.2917 27.9712 37.375 28.1702 37.5417 28.3397L39.3333 30.1735C39.6667 30.5147 40.0556 30.6853 40.5 30.6853C40.9444 30.6853 41.3333 30.5147 41.6667 30.1735L45.7917 25.9088C45.9583 25.7382 46.0417 25.5392 46.0417 25.3118C46.0417 25.0843 45.9583 24.8853 45.7917 24.7147C45.625 24.5441 45.4305 24.4588 45.2083 24.4588C44.9861 24.4588 44.7917 24.5441 44.625 24.7147L40.5 28.9368ZM21.6667 48C21.1944 48 20.7989 47.8362 20.48 47.5087C20.1611 47.1812 20.0011 46.7763 20 46.2941C19.9989 45.8119 20.1589 45.407 20.48 45.0795C20.8011 44.752 21.1967 44.5882 21.6667 44.5882H38.3333C38.8056 44.5882 39.2017 44.752 39.5217 45.0795C39.8417 45.407 40.0011 45.8119 40 46.2941C39.9989 46.7763 39.8389 47.1817 39.52 47.5104C39.2011 47.8391 38.8056 48.0023 38.3333 48H21.6667ZM41.6667 36.0588C39.3611 36.0588 37.3961 35.2269 35.7717 33.5631C34.1472 31.8993 33.3344 29.8881 33.3333 27.5294C33.3322 25.1707 34.145 23.1595 35.7717 21.4957C37.3983 19.8319 39.3633 19 41.6667 19C43.97 19 45.9355 19.8319 47.5633 21.4957C49.1911 23.1595 50.0033 25.1707 50 27.5294C49.9967 29.8881 49.1839 31.8999 47.5617 33.5648C45.9394 35.2298 43.9744 36.0611 41.6667 36.0588ZM21.6667 34.3529C21.1944 34.3529 20.7989 34.1892 20.48 33.8616C20.1611 33.5341 20.0011 33.1292 20 32.647C19.9989 32.1649 20.1589 31.76 20.48 31.4325C20.8011 31.1049 21.1967 30.9412 21.6667 30.9412H29.4583C29.9306 30.9412 30.3267 31.1049 30.6467 31.4325C30.9667 31.76 31.1261 32.1649 31.125 32.647C31.125 33.1019 30.965 33.5 30.645 33.8412C30.325 34.1823 29.9294 34.3529 29.4583 34.3529H21.6667ZM21.6667 41.1765C21.1944 41.1765 20.7989 41.0127 20.48 40.6852C20.1611 40.3576 20.0011 39.9528 20 39.4706C19.9989 38.9884 20.1589 38.5835 20.48 38.256C20.8011 37.9285 21.1967 37.7647 21.6667 37.7647H34.875C35.3472 37.7647 35.7433 37.9285 36.0633 38.256C36.3833 38.5835 36.5428 38.9884 36.5417 39.4706C36.5417 39.9255 36.3889 40.3235 36.0833 40.6647C35.7778 41.0059 35.375 41.1765 34.875 41.1765H21.6667Z" fill="white"/>
</svg>
