<svg width="68" height="68" viewBox="0 0 68 68" fill="none" xmlns="http://www.w3.org/2000/svg">
<rect width="68" height="68" rx="10" fill="#5A6AFF"/>
<path d="M21.5556 47C21.1148 47 20.7456 46.8495 20.448 46.5486C20.1504 46.2477 20.001 45.8757 20 45.4326V43.8653C20 43.4212 20.1493 43.0492 20.448 42.7493C20.7467 42.4494 21.1159 42.299 21.5556 42.2979C21.9953 42.2969 22.365 42.4474 22.6647 42.7493C22.9644 43.0513 23.1132 43.4233 23.1111 43.8653V45.4326C23.1111 45.8767 22.9618 46.2492 22.6631 46.5502C22.3644 46.8511 21.9953 47.001 21.5556 47ZM27.7778 47C27.337 47 26.9678 46.8495 26.6702 46.5486C26.3726 46.2477 26.2233 45.8757 26.2222 45.4326V36.8122C26.2222 36.3681 26.3716 35.9961 26.6702 35.6962C26.9689 35.3963 27.3381 35.2459 27.7778 35.2448C28.2175 35.2438 28.5872 35.3943 28.8869 35.6962C29.1866 35.9982 29.3354 36.3702 29.3333 36.8122V45.4326C29.3333 45.8767 29.184 46.2492 28.8853 46.5502C28.5867 46.8511 28.2175 47.001 27.7778 47ZM34 47C33.5592 47 33.1901 46.8495 32.8924 46.5486C32.5948 46.2477 32.4455 45.8757 32.4444 45.4326V39.9469C32.4444 39.5028 32.5938 39.1308 32.8924 38.8309C33.1911 38.5311 33.5603 38.3806 34 38.3795C34.4397 38.3785 34.8094 38.529 35.1091 38.8309C35.4088 39.1329 35.5576 39.5049 35.5555 39.9469V45.4326C35.5555 45.8767 35.4062 46.2492 35.1075 46.5502C34.8089 46.8511 34.4397 47.001 34 47ZM40.2222 47C39.7815 47 39.4123 46.8495 39.1147 46.5486C38.817 46.2477 38.6677 45.8757 38.6667 45.4326V37.5959C38.6667 37.1518 38.816 36.7798 39.1147 36.4799C39.4133 36.18 39.7825 36.0296 40.2222 36.0285C40.6619 36.0275 41.0316 36.1779 41.3313 36.4799C41.631 36.7819 41.7798 37.1539 41.7778 37.5959V45.4326C41.7778 45.8767 41.6284 46.2492 41.3298 46.5502C41.0311 46.8511 40.6619 47.001 40.2222 47ZM46.4444 47C46.0037 47 45.6345 46.8495 45.3369 46.5486C45.0392 46.2477 44.8899 45.8757 44.8889 45.4326V31.3265C44.8889 30.8824 45.0382 30.5104 45.3369 30.2105C45.6355 29.9106 46.0047 29.7601 46.4444 29.7591C46.8841 29.7581 47.2538 29.9085 47.5535 30.2105C47.8532 30.5125 48.0021 30.8845 48 31.3265V45.4326C48 45.8767 47.8506 46.2492 47.552 46.5502C47.2533 46.8511 46.8841 47.001 46.4444 47ZM37.1111 32.8546C36.6963 32.8546 36.3007 32.7763 35.9242 32.6195C35.5478 32.4628 35.2045 32.2407 34.8944 31.9534L30.8889 27.9175L22.6444 36.2244C22.3333 36.5379 21.9641 36.6884 21.5369 36.6758C21.1096 36.6633 20.7399 36.4998 20.4278 36.1853C20.1426 35.8718 20.0067 35.4998 20.0202 35.0693C20.0337 34.6388 20.1825 34.2793 20.4667 33.991L28.6722 25.7232C28.9833 25.4097 29.3271 25.1814 29.7035 25.0382C30.08 24.8951 30.4751 24.823 30.8889 24.8219C31.3027 24.8209 31.7045 24.893 32.0944 25.0382C32.4844 25.1835 32.8214 25.4118 33.1055 25.7232L37.1111 29.7591L45.3555 21.4521C45.6666 21.1387 46.0364 20.9882 46.4646 21.0007C46.8929 21.0133 47.2621 21.1768 47.5722 21.4913C47.8574 21.8048 47.9938 22.1773 47.9813 22.6088C47.9689 23.0404 47.8195 23.3993 47.5333 23.6856L39.3278 31.9534C39.0426 32.2407 38.7055 32.4628 38.3167 32.6195C37.9278 32.7763 37.5259 32.8546 37.1111 32.8546Z" fill="white"/>
</svg>
