<svg width="68" height="68" viewBox="0 0 68 68" fill="none" xmlns="http://www.w3.org/2000/svg">
<rect width="68" height="68" rx="10" fill="#5A6AFF"/>
<path d="M40.2125 32.9919H26.1875C25.511 32.9919 24.95 33.5485 24.95 34.2197C24.95 34.8909 25.511 35.4475 26.1875 35.4475H40.2125C40.889 35.4475 41.45 34.8909 41.45 34.2197C41.45 33.5485 40.889 32.9919 40.2125 32.9919ZM40.2125 40.3588H26.1875C25.511 40.3588 24.95 40.9155 24.95 41.5867C24.95 42.2579 25.511 42.8145 26.1875 42.8145H40.2125C40.889 42.8145 41.45 42.2579 41.45 41.5867C41.45 40.9155 40.889 40.3588 40.2125 40.3588ZM24.95 26.8528C24.95 27.524 25.511 28.0806 26.1875 28.0806H38.48L38.3315 27.6222C38.249 27.393 38.1335 27.1802 37.985 26.9837C37.919 26.9019 37.8695 26.8364 37.8035 26.7709C37.556 26.5253 37.259 26.3453 36.9455 26.247L35.015 25.6249H26.1875C25.511 25.6249 24.95 26.1816 24.95 26.8528ZM46.07 36.7409L45.641 35.4475L44.321 34.9728C44.1725 34.9237 44.057 34.8418 43.925 34.7763V47.3165C43.925 47.9877 43.364 48.5443 42.6875 48.5443H23.7125C23.036 48.5443 22.475 47.9877 22.475 47.3165V21.9415C22.475 21.2703 23.036 20.7136 23.7125 20.7136H32.837C32.8865 20.6154 32.9195 20.5008 32.9855 20.4026C33.3815 19.846 33.9425 19.4203 34.619 19.1911L36.9455 18.4381C37.061 18.389 37.193 18.3235 37.3085 18.258H23.7125C21.6665 18.258 20 19.9115 20 21.9415V47.3165C20 49.3465 21.6665 51 23.7125 51H42.6875C44.7335 51 46.4 49.3465 46.4 47.3165V37.363C46.2639 37.1703 46.1531 36.9612 46.07 36.7409ZM39.5525 25.052C39.6845 25.1829 39.8165 25.3303 39.932 25.494C40.262 25.9032 40.5095 26.378 40.6745 26.8855L41.417 29.1447C41.483 29.3248 41.5985 29.4721 41.747 29.5704C41.8955 29.685 42.077 29.7341 42.2585 29.7341C42.4426 29.7377 42.6227 29.68 42.77 29.5704C42.902 29.4721 43.0175 29.3412 43.0835 29.1938V29.1447L43.8425 26.8855C44.0735 26.1979 44.453 25.5758 44.981 25.0683C45.4925 24.5608 46.1195 24.1679 46.8125 23.9387L49.0895 23.202C49.271 23.1365 49.4195 23.022 49.5185 22.8746C49.6291 22.7285 49.6871 22.5498 49.6835 22.3671C49.6871 22.1844 49.6291 22.0058 49.5185 21.8596C49.4071 21.7148 49.2591 21.6018 49.0895 21.5322H49.04L46.763 20.7955C46.07 20.5663 45.443 20.1898 44.9315 19.6659C44.4153 19.1558 44.0255 18.5338 43.793 17.8487L43.0505 15.5895C42.9897 15.416 42.8739 15.2667 42.7205 15.1639C42.572 15.0656 42.3905 15.0002 42.209 15.0002C42.0249 14.9966 41.8448 15.0542 41.6975 15.1639C41.549 15.2621 41.4335 15.4258 41.3675 15.5895L40.625 17.8487V17.8978C40.3775 18.5527 39.998 19.1584 39.5195 19.6495C39.008 20.157 38.3975 20.5499 37.7045 20.7791L35.4275 21.5158C35.246 21.5813 35.0975 21.6959 34.9985 21.8432C34.8879 21.9894 34.8299 22.168 34.8335 22.3507C34.8335 22.5308 34.883 22.7109 34.9985 22.8582C35.0975 23.0056 35.2625 23.1202 35.4275 23.1857L37.7045 23.9224C38.3975 24.1516 39.0245 24.5445 39.536 25.052H39.5525ZM52.637 31.715C52.7426 31.715 52.8515 31.8132 52.9175 31.895C52.9835 31.9769 53 32.0751 53 32.1733C53 32.2716 52.9835 32.3698 52.9175 32.4517C52.8515 32.5335 52.769 32.599 52.67 32.6317L51.3995 33.041C51.02 33.172 50.6735 33.3848 50.3765 33.6631C50.096 33.9414 49.8815 34.2852 49.7495 34.6781L49.337 35.9223C49.304 36.0205 49.238 36.1024 49.1555 36.1679C49.0762 36.2317 48.9771 36.2665 48.875 36.2665C48.7729 36.2665 48.6738 36.2317 48.5945 36.1679C48.5115 36.105 48.4485 36.0197 48.413 35.9223L48.0005 34.6781C47.8685 34.3016 47.654 33.9414 47.3735 33.6631C47.093 33.3848 46.73 33.1556 46.3505 33.041L45.08 32.6317C44.9818 32.5965 44.8959 32.534 44.8325 32.4517C44.7682 32.3729 44.7331 32.2747 44.7331 32.1733C44.7331 32.072 44.7682 31.9738 44.8325 31.895C44.8985 31.8132 44.981 31.7477 45.08 31.715L46.3505 31.3057C46.73 31.1747 47.0765 30.9619 47.357 30.6836C47.6375 30.4053 47.852 30.0615 47.9675 29.6849L48.38 28.4408C48.413 28.3425 48.479 28.2607 48.5615 28.1952C48.6408 28.1314 48.7399 28.0966 48.842 28.0966C48.9441 28.0966 49.0432 28.1314 49.1225 28.1952C49.205 28.2607 49.271 28.3425 49.304 28.4408L49.7165 29.6849C49.8485 30.0615 50.063 30.4053 50.3435 30.7C50.624 30.9783 50.9705 31.1911 51.3665 31.3221L52.637 31.715Z" fill="white"/>
</svg>
